<svg width="313" height="81" viewBox="0 0 313 81" fill="none" xmlns="http://www.w3.org/2000/svg">
<g opacity="0.1">
<path d="M-12.2491 15.598C-12.2491 15.598 -3.52097 22.3373 61.9083 23.9486C111.424 25.1676 204.623 2.95998 261.007 4.38911C319.039 5.84627 312.805 20.5859 312.805 10.7081V25.4758C312.805 25.4758 293.426 11.5908 259.739 11.7169C210.202 11.9271 108.317 42.163 59.6259 43.1018C12.1389 44.0125 -12.2491 25.4758 -12.2491 25.4758V15.598Z" fill="#27A857"/>
</g>
<g opacity="0.2">
<path d="M-1.46143 15.3505C110.687 69.9155 187.578 -1.56779 247.261 0.0264969C308.711 1.67672 313 29.5662 313 18.4481V35.0763C313 35.0763 292.79 28.1982 258.151 26.0917C132.466 18.4481 125.138 86.8149 66.7234 79.5109C8.30835 72.207 -32.3741 0.310219 -1.46143 15.3505Z" fill="#27A857"/>
</g>
</svg>
