<svg width="260" height="84" viewBox="0 0 260 84" fill="none" xmlns="http://www.w3.org/2000/svg">
<g clip-path="url(#clip0_501_4310)">
<path d="M1.60034 35.2471C0.715942 35.2471 0 35.963 0 36.8465V44.8464C0 45.7308 0.715942 46.4467 1.60034 46.4467C2.48383 46.4467 3.19977 45.7308 3.19977 44.8464V36.8465C3.19977 35.963 2.48383 35.2471 1.60034 35.2471Z" fill="#DCFADF"/>
<path d="M9.6062 28.6958C8.72272 28.6958 8.00586 29.4127 8.00586 30.2961V52.4482C8.00586 53.3326 8.72272 54.0486 9.6062 54.0486C10.4897 54.0486 11.2065 53.3326 11.2065 52.4482V30.2961C11.2065 29.4127 10.4897 28.6958 9.6062 28.6958Z" fill="#DCFADF"/>
<path d="M17.6003 17.647C16.7169 17.647 16 18.3629 16 19.2464V64.0468C16 64.9303 16.7169 65.6471 17.6003 65.6471C18.4838 65.6471 19.2007 64.9303 19.2007 64.0468V19.2464C19.2007 18.3629 18.4838 17.647 17.6003 17.647Z" fill="#DCFADF"/>
<path d="M25.6003 25.647C24.7169 25.647 24 26.3629 24 27.2473V54.4467C24 55.3302 24.7169 56.047 25.6003 56.047C26.4838 56.047 27.2007 55.3302 27.2007 54.4467V27.2473C27.2007 26.3629 26.4838 25.647 25.6003 25.647Z" fill="#DCFADF"/>
<path d="M49.7557 21.7734C48.8722 21.7734 48.1562 22.4894 48.1562 23.3738V59.3714C48.1562 60.2549 48.8722 60.9708 49.7557 60.9708C50.6392 60.9708 51.356 60.2549 51.356 59.3714V23.3738C51.356 22.4894 50.6392 21.7734 49.7557 21.7734Z" fill="#DCFADF"/>
<path d="M65.6003 24.0464C64.7169 24.0464 64 24.7632 64 25.6467V57.6462C64 58.5306 64.7169 59.2466 65.6003 59.2466C66.4838 59.2466 67.1998 58.5306 67.1998 57.6462V25.6467C67.1998 24.7632 66.4838 24.0464 65.6003 24.0464Z" fill="#DCFADF"/>
<path d="M73.6003 32.0464C72.7169 32.0464 72 32.7632 72 33.6467V49.6465C72 50.53 72.7169 51.2468 73.6003 51.2468C74.4838 51.2468 75.1998 50.53 75.1998 49.6465V33.6467C75.1998 32.7632 74.4838 32.0464 73.6003 32.0464Z" fill="#DCFADF"/>
<path d="M57.6003 11.2466C56.7159 11.2466 56 11.9634 56 12.8469V70.4464C56 71.3308 56.7159 72.0468 57.6003 72.0468C58.4838 72.0468 59.1998 71.3308 59.1998 70.4464V12.8469C59.1998 11.9634 58.4838 11.2466 57.6003 11.2466Z" fill="#DCFADF"/>
<path d="M33.5994 36.8467C32.7159 36.8467 32 37.5635 32 38.447V44.8465C32 45.7309 32.7159 46.4469 33.5994 46.4469C34.4829 46.4469 35.1998 45.7309 35.1998 44.8465V38.447C35.1998 37.5635 34.4829 36.8467 33.5994 36.8467Z" fill="#DCFADF"/>
<path d="M81.6003 36.311C80.7169 36.311 80 37.027 80 37.9105V44.8337C80 45.7172 80.7169 46.434 81.6003 46.434C82.4838 46.434 83.2007 45.7172 83.2007 44.8337V37.9105C83.2007 37.027 82.4838 36.311 81.6003 36.311Z" fill="#DCFADF"/>
<path d="M41.4499 33.2603C40.5656 33.2603 39.8496 33.9762 39.8496 34.8597V47.884C39.8496 48.7675 40.5656 49.4843 41.4499 49.4843C42.3334 49.4843 43.0494 48.7675 43.0494 47.884V34.8597C43.0494 33.9762 42.3334 33.2603 41.4499 33.2603Z" fill="#DCFADF"/>
</g>
<g clip-path="url(#clip1_501_4310)">
<path d="M169.999 35.2471C170.884 35.2471 171.6 35.963 171.6 36.8465V44.8464C171.6 45.7308 170.884 46.4467 169.999 46.4467C169.116 46.4467 168.4 45.7308 168.4 44.8464V36.8465C168.4 35.963 169.116 35.2471 169.999 35.2471Z" fill="#DCFADF"/>
<path d="M161.993 28.6958C162.877 28.6958 163.594 29.4127 163.594 30.2961V52.4482C163.594 53.3326 162.877 54.0486 161.993 54.0486C161.11 54.0486 160.393 53.3326 160.393 52.4482V30.2961C160.393 29.4127 161.11 28.6958 161.993 28.6958Z" fill="#DCFADF"/>
<path d="M153.999 17.647C154.883 17.647 155.6 18.3629 155.6 19.2464V64.0468C155.6 64.9303 154.883 65.6471 153.999 65.6471C153.116 65.6471 152.399 64.9303 152.399 64.0468V19.2464C152.399 18.3629 153.116 17.647 153.999 17.647Z" fill="#DCFADF"/>
<path d="M145.999 25.647C146.883 25.647 147.6 26.3629 147.6 27.2473V54.4467C147.6 55.3302 146.883 56.047 145.999 56.047C145.116 56.047 144.399 55.3302 144.399 54.4467V27.2473C144.399 26.3629 145.116 25.647 145.999 25.647Z" fill="#DCFADF"/>
<path d="M121.844 21.7734C122.727 21.7734 123.443 22.4894 123.443 23.3738V59.3714C123.443 60.2549 122.727 60.9708 121.844 60.9708C120.96 60.9708 120.244 60.2549 120.244 59.3714V23.3738C120.244 22.4894 120.96 21.7734 121.844 21.7734Z" fill="#DCFADF"/>
<path d="M105.999 24.0464C106.883 24.0464 107.6 24.7632 107.6 25.6467V57.6462C107.6 58.5306 106.883 59.2466 105.999 59.2466C105.116 59.2466 104.4 58.5306 104.4 57.6462V25.6467C104.4 24.7632 105.116 24.0464 105.999 24.0464Z" fill="#DCFADF"/>
<path d="M97.9993 32.0464C98.8828 32.0464 99.5996 32.7632 99.5996 33.6467V49.6465C99.5996 50.53 98.8828 51.2468 97.9993 51.2468C97.1158 51.2468 96.3998 50.53 96.3998 49.6465V33.6467C96.3998 32.7632 97.1158 32.0464 97.9993 32.0464Z" fill="#DCFADF"/>
<path d="M113.999 11.2466C114.884 11.2466 115.6 11.9634 115.6 12.8469V70.4464C115.6 71.3308 114.884 72.0468 113.999 72.0468C113.116 72.0468 112.4 71.3308 112.4 70.4464V12.8469C112.4 11.9634 113.116 11.2466 113.999 11.2466Z" fill="#DCFADF"/>
<path d="M138 36.8467C138.884 36.8467 139.6 37.5635 139.6 38.447V44.8465C139.6 45.7309 138.884 46.4469 138 46.4469C137.117 46.4469 136.4 45.7309 136.4 44.8465V38.447C136.4 37.5635 137.117 36.8467 138 36.8467Z" fill="#DCFADF"/>
<path d="M89.9993 36.311C90.8828 36.311 91.5996 37.027 91.5996 37.9105V44.8337C91.5996 45.7172 90.8828 46.434 89.9993 46.434C89.1158 46.434 88.3989 45.7172 88.3989 44.8337V37.9105C88.3989 37.027 89.1158 36.311 89.9993 36.311Z" fill="#DCFADF"/>
<path d="M130.15 33.2603C131.034 33.2603 131.75 33.9762 131.75 34.8597V47.884C131.75 48.7675 131.034 49.4843 130.15 49.4843C129.266 49.4843 128.55 48.7675 128.55 47.884V34.8597C128.55 33.9762 129.266 33.2603 130.15 33.2603Z" fill="#DCFADF"/>
</g>
<g clip-path="url(#clip2_501_4310)">
<path d="M258.4 35.2471C259.284 35.2471 260 35.963 260 36.8465V44.8464C260 45.7308 259.284 46.4467 258.4 46.4467C257.516 46.4467 256.8 45.7308 256.8 44.8464V36.8465C256.8 35.963 257.516 35.2471 258.4 35.2471Z" fill="#DCFADF"/>
<path d="M250.394 28.6958C251.277 28.6958 251.994 29.4127 251.994 30.2961V52.4482C251.994 53.3326 251.277 54.0486 250.394 54.0486C249.51 54.0486 248.793 53.3326 248.793 52.4482V30.2961C248.793 29.4127 249.51 28.6958 250.394 28.6958Z" fill="#DCFADF"/>
<path d="M242.4 17.647C243.283 17.647 244 18.3629 244 19.2464V64.0468C244 64.9303 243.283 65.6471 242.4 65.6471C241.516 65.6471 240.799 64.9303 240.799 64.0468V19.2464C240.799 18.3629 241.516 17.647 242.4 17.647Z" fill="#DCFADF"/>
<path d="M234.4 25.647C235.283 25.647 236 26.3629 236 27.2473V54.4467C236 55.3302 235.283 56.047 234.4 56.047C233.516 56.047 232.799 55.3302 232.799 54.4467V27.2473C232.799 26.3629 233.516 25.647 234.4 25.647Z" fill="#DCFADF"/>
<path d="M210.244 21.7734C211.128 21.7734 211.844 22.4894 211.844 23.3738V59.3714C211.844 60.2549 211.128 60.9708 210.244 60.9708C209.361 60.9708 208.644 60.2549 208.644 59.3714V23.3738C208.644 22.4894 209.361 21.7734 210.244 21.7734Z" fill="#DCFADF"/>
<path d="M194.4 24.0464C195.283 24.0464 196 24.7632 196 25.6467V57.6462C196 58.5306 195.283 59.2466 194.4 59.2466C193.516 59.2466 192.8 58.5306 192.8 57.6462V25.6467C192.8 24.7632 193.516 24.0464 194.4 24.0464Z" fill="#DCFADF"/>
<path d="M186.4 32.0464C187.283 32.0464 188 32.7632 188 33.6467V49.6465C188 50.53 187.283 51.2468 186.4 51.2468C185.516 51.2468 184.8 50.53 184.8 49.6465V33.6467C184.8 32.7632 185.516 32.0464 186.4 32.0464Z" fill="#DCFADF"/>
<path d="M202.4 11.2466C203.284 11.2466 204 11.9634 204 12.8469V70.4464C204 71.3308 203.284 72.0468 202.4 72.0468C201.516 72.0468 200.8 71.3308 200.8 70.4464V12.8469C200.8 11.9634 201.516 11.2466 202.4 11.2466Z" fill="#DCFADF"/>
<path d="M226.401 36.8467C227.284 36.8467 228 37.5635 228 38.447V44.8465C228 45.7309 227.284 46.4469 226.401 46.4469C225.517 46.4469 224.8 45.7309 224.8 44.8465V38.447C224.8 37.5635 225.517 36.8467 226.401 36.8467Z" fill="#DCFADF"/>
<path d="M178.4 36.311C179.283 36.311 180 37.027 180 37.9105V44.8337C180 45.7172 179.283 46.434 178.4 46.434C177.516 46.434 176.799 45.7172 176.799 44.8337V37.9105C176.799 37.027 177.516 36.311 178.4 36.311Z" fill="#DCFADF"/>
<path d="M218.55 33.2603C219.434 33.2603 220.15 33.9762 220.15 34.8597V47.884C220.15 48.7675 219.434 49.4843 218.55 49.4843C217.667 49.4843 216.951 48.7675 216.951 47.884V34.8597C216.951 33.9762 217.667 33.2603 218.55 33.2603Z" fill="#DCFADF"/>
</g>
<defs>
<clipPath id="clip0_501_4310">
<rect width="83.2" height="83.2" fill="white"/>
</clipPath>
<clipPath id="clip1_501_4310">
<rect width="83.2" height="83.2" fill="white" transform="matrix(-1 0 0 1 171.6 0)"/>
</clipPath>
<clipPath id="clip2_501_4310">
<rect width="83.2" height="83.2" fill="white" transform="matrix(-1 0 0 1 260 0)"/>
</clipPath>
</defs>
</svg>
