<svg width="24" height="24" viewBox="0 0 24 24" fill="none" xmlns="http://www.w3.org/2000/svg">
<path d="M17.71 3.79065C17.111 3.58965 16.481 3.50065 15.85 3.50065C14.46 3.49065 13.111 3.95065 12 4.79965C11.91 4.73065 11.8 4.66965 11.7 4.61065C11.6 4.54965 11.42 4.40065 11.27 4.32065L10.89 4.15065C10.69 4.04065 10.481 3.96065 10.26 3.88965C10.24 3.87065 10.21 3.84965 10.17 3.83065H10.111C9.52002 3.62965 8.91002 3.51965 8.28002 3.50065H8.17002C7.89002 3.50065 7.61102 3.51965 7.33002 3.56065H7.21002C6.91002 3.59965 6.61102 3.66965 6.32102 3.76965C2.59002 4.99065 1.26002 9.04065 2.39002 12.5806C3.03002 14.3896 4.06102 16.0306 5.40102 17.3796C7.35002 19.2596 9.48102 20.9196 11.77 22.3396L12.03 22.5006L12.28 22.3496C14.561 20.9196 16.68 19.2596 18.611 17.3896C19.96 16.0406 20.99 14.3896 21.62 12.5806C22.731 9.04065 21.401 4.99065 17.71 3.79065Z" fill="#EB763C"/>
</svg>
